<svg xmlns="http://www.w3.org/2000/svg" width="500px" height="500px" viewBox="-10 -10 480 480">
    <path d="M-20 -20 H470 V470 H-20" fill="#DDDDDD" />
    
    
    <path d="M50 50 l-43.30127018922193 -25 l43.30127018922193 -25 l43.30127018922193 25" fill="#A9A9A9" />
    <path d="M50 50 v50 l43.30127018922193 -25 v-50" fill="#54130B" />
    <path d="M50 50 v50 l-43.30127018922193 -25 v-50" fill="#6B180E" />
    <path d="M170 50 l-43.30127018922193 -25 l43.30127018922193 -25 l43.30127018922193 25" fill="#A9A9A9" />
    <path d="M170 50 v50 l43.30127018922193 -25 v-50" fill="#51280B" />
    <path d="M170 50 v50 l-43.30127018922193 -25 v-50" fill="#6B3510" />
    <path d="M290 50 l-43.30127018922193 -25 l43.30127018922193 -25 l43.30127018922193 25" fill="#A9A9A9" />
    <path d="M290 50 v50 l43.30127018922193 -25 v-50" fill="#4E3F0A" />
    <path d="M290 50 v50 l-43.30127018922193 -25 v-50" fill="#5E4B0E" />
    <path d="M410 50 l-43.30127018922193 -25 l43.30127018922193 -25 l43.30127018922193 25" fill="#A9A9A9" />
    <path d="M410 50 v50 l43.30127018922193 -25 v-50" fill="#404809" />
    <path d="M410 50 v50 l-43.30127018922193 -25 v-50" fill="#555E0D" />
    
    
    <path d="M50 170 l-43.30127018922193 -25 l43.30127018922193 -25 l43.30127018922193 25" fill="#A9A9A9" />
    <path d="M50 170 v50 l43.30127018922193 -25 v-50" fill="#25460A" />
    <path d="M50 170 v50 l-43.30127018922193 -25 v-50" fill="#2F5B0D" />
    <path d="M170 170 l-43.30127018922193 -25 l43.30127018922193 -25 l43.30127018922193 25" fill="#A9A9A9" />
    <path d="M170 170 v50 l43.30127018922193 -25 v-50" fill="#08430B" />
    <path d="M170 170 v50 l-43.30127018922193 -25 v-50" fill="#0A570D" />
    <path d="M290 170 l-43.30127018922193 -25 l43.30127018922193 -25 l43.30127018922193 25" fill="#A9A9A9" />
    <path d="M290 170 v50 l43.30127018922193 -25 v-50" fill="#074426" />
    <path d="M290 170 v50 l-43.30127018922193 -25 v-50" fill="#0A5A31" />
    <path d="M410 170 l-43.30127018922193 -25 l43.30127018922193 -25 l43.30127018922193 25" fill="#A9A9A9" />
    <path d="M410 170 v50 l43.30127018922193 -25 v-50" fill="#074641" />
    <path d="M410 170 v50 l-43.30127018922193 -25 v-50" fill="#0A5C54" />
    
    
    <path d="M50 290 l-43.30127018922193 -25 l43.30127018922193 -25 l43.30127018922193 25" fill="#A9A9A9" />
    <path d="M50 290 v50 l43.30127018922193 -25 v-50" fill="#083C4E" />
    <path d="M50 290 v50 l-43.30127018922193 -25 v-50" fill="#0A4E67" />
    <path d="M170 290 l-43.30127018922193 -25 l43.30127018922193 -25 l43.30127018922193 25" fill="#A9A9A9" />
    <path d="M170 290 v50 l43.30127018922193 -25 v-50" fill="#0B2650" />
    <path d="M170 290 v50 l-43.30127018922193 -25 v-50" fill="#0C3267" />
    <path d="M290 290 l-43.30127018922193 -25 l43.30127018922193 -25 l43.30127018922193 25" fill="#A9A9A9" />
    <path d="M290 290 v50 l43.30127018922193 -25 v-50" fill="#0C1151" />
    <path d="M290 290 v50 l-43.30127018922193 -25 v-50" fill="#101668" />
    <path d="M410 290 l-43.30127018922193 -25 l43.30127018922193 -25 l43.30127018922193 25" fill="#A9A9A9" />
    <path d="M410 290 v50 l43.30127018922193 -25 v-50" fill="#281250" />
    <path d="M410 290 v50 l-43.30127018922193 -25 v-50" fill="#351968" />
    
    
    <path d="M50 410 l-43.30127018922193 -25 l43.30127018922193 -25 l43.30127018922193 25" fill="#A9A9A9" />
    <path d="M50 410 v50 l43.30127018922193 -25 v-50" fill="#431550" />
    <path d="M50 410 v50 l-43.30127018922193 -25 v-50" fill="#591B67" />
    <path d="M170 410 l-43.30127018922193 -25 l43.30127018922193 -25 l43.30127018922193 25" fill="#A9A9A9" />
    <path d="M170 410 v50 l43.30127018922193 -25 v-50" fill="#521641" />
    <path d="M170 410 v50 l-43.30127018922193 -25 v-50" fill="#6C1C55" />
    <path d="M290 410 l-43.30127018922193 -25 l43.30127018922193 -25 l43.30127018922193 25" fill="#A9A9A9" />
    <path d="M290 410 v50 l43.30127018922193 -25 v-50" fill="#521426" />
    <path d="M290 410 v50 l-43.30127018922193 -25 v-50" fill="#6C1B32" />
    <path d="M410 410 l-43.30127018922193 -25 l43.30127018922193 -25 l43.30127018922193 25" fill="#A9A9A9" />
    <path d="M410 410 v50 l43.30127018922193 -25 v-50" fill="#323232" />
    <path d="M410 410 v50 l-43.30127018922193 -25 v-50" fill="#434343" />
</svg>